<?xml version="1.0" encoding="UTF-8" standalone="no"?>
<!-- Created with Inkscape (http://www.inkscape.org/) -->

<svg
   xmlns:dc="http://purl.org/dc/elements/1.1/"
   xmlns:cc="http://creativecommons.org/ns#"
   xmlns:rdf="http://www.w3.org/1999/02/22-rdf-syntax-ns#"
   xmlns:svg="http://www.w3.org/2000/svg"
   xmlns="http://www.w3.org/2000/svg"
   xmlns:sodipodi="http://sodipodi.sourceforge.net/DTD/sodipodi-0.dtd"
   xmlns:inkscape="http://www.inkscape.org/namespaces/inkscape"
   width="831.11377"
   height="718.13251"
   id="svg5493"
   version="1.1"
   inkscape:version="0.48.1 "
   sodipodi:docname="New document 4">
  <defs
     id="defs5495">
    <clipPath
       clipPathUnits="userSpaceOnUse"
       id="clipPath4899">
      <path
         inkscape:connector-curvature="0"
         d="m 224.894,306.4 71.216,0 0,57.451 -71.216,0 0,-57.451 z"
         id="path4901" />
    </clipPath>
  </defs>
  <sodipodi:namedview
     id="base"
     pagecolor="#ffffff"
     bordercolor="#666666"
     borderopacity="1.0"
     inkscape:pageopacity="0.0"
     inkscape:pageshadow="2"
     inkscape:zoom="0.49497475"
     inkscape:cx="340.81743"
     inkscape:cy="332.7658"
     inkscape:document-units="px"
     inkscape:current-layer="layer1"
     showgrid="false"
     fit-margin-top="0"
     fit-margin-left="0"
     fit-margin-right="0"
     fit-margin-bottom="0"
     inkscape:window-width="1920"
     inkscape:window-height="1014"
     inkscape:window-x="-4"
     inkscape:window-y="0"
     inkscape:window-maximized="1" />
  <metadata
     id="metadata5498">
    <rdf:RDF>
      <cc:Work
         rdf:about="">
        <dc:format>image/svg+xml</dc:format>
        <dc:type
           rdf:resource="http://purl.org/dc/dcmitype/StillImage" />
        <dc:title></dc:title>
      </cc:Work>
    </rdf:RDF>
  </metadata>
  <g
     inkscape:label="Layer 1"
     inkscape:groupmode="layer"
     id="layer1"
     transform="translate(-121.2044,269.8637)">
    <g
       transform="matrix(12.5,0,0,-12.5,-2689.9731,4278.2688)"
       id="g4895">
      <g
         id="g4897"
         clip-path="url(#clipPath4899)">
        <g
           id="g4903"
           transform="translate(225.4492,307.6406)">
          <path
             inkscape:connector-curvature="0"
             d="m 0,0 0,3.131 -0.555,1.133 2.438,0 1.767,-3.001 0.058,0 C 3.597,1.892 3.542,2.352 3.542,2.64 l 0,1.624 2.424,0 -0.542,-1.14 0,-3.124 0.542,-1.147 -2.424,0 -1.731,2.842 -0.058,0 C 1.834,1.224 1.876,0.863 1.876,0.613 l 0,-1.76 -2.431,0 L 0,0 z"
             style="fill:#009A44;fill-opacity:1;fill-rule:nonzero;stroke:none"
             id="path4905" />
        </g>
        <g
           id="g4907"
           transform="translate(237.2653,309.1198)">
          <path
             inkscape:connector-curvature="0"
             d="m 0,0 c 0,-0.828 -0.284,-1.493 -0.851,-1.998 -0.544,-0.481 -1.231,-0.722 -2.063,-0.722 -0.832,0 -1.52,0.241 -2.064,0.722 -0.567,0.505 -0.851,1.17 -0.851,1.998 0,0.813 0.286,1.478 0.859,1.998 0.548,0.495 1.233,0.743 2.056,0.743 0.822,0 1.507,-0.248 2.055,-0.743 C -0.286,1.478 0,0.813 0,0 m -3.903,-0.029 c 0,-0.303 0.093,-0.548 0.278,-0.736 0.185,-0.188 0.422,-0.281 0.711,-0.281 0.288,0 0.525,0.093 0.71,0.281 0.185,0.188 0.278,0.433 0.278,0.736 0,0.289 -0.09,0.533 -0.271,0.732 -0.18,0.2 -0.419,0.299 -0.717,0.299 -0.294,0 -0.532,-0.099 -0.715,-0.299 C -3.811,0.504 -3.903,0.26 -3.903,-0.029"
             style="fill:#009A44;fill-opacity:1;fill-rule:nonzero;stroke:none"
             id="path4909" />
        </g>
        <g
           id="g4911"
           transform="translate(241.7955,308.3261)">
          <path
             inkscape:connector-curvature="0"
             d="m 0,0 0.837,-1.832 -2.106,0 -0.664,1.738 -0.238,0 0,-1.738 -2.467,0 0.548,1.154 0,3.116 -0.548,1.14 2.921,0 c 0.664,0 1.193,-0.142 1.587,-0.425 C 0.313,2.825 0.534,2.339 0.534,1.695 0.534,1.296 0.455,0.994 0.296,0.79 0.137,0.585 -0.132,0.418 -0.512,0.289 L 0,0 z m -2.171,1.183 0.137,0 c 0.433,0 0.649,0.149 0.649,0.447 0,0.193 -0.062,0.322 -0.187,0.39 -0.097,0.053 -0.246,0.079 -0.448,0.079 l -0.151,0 0,-0.916 z"
             style="fill:#009A44;fill-opacity:1;fill-rule:nonzero;stroke:none"
             id="path4913" />
        </g>
        <g
           id="g4915"
           transform="translate(246.9243,311.9041)">
          <path
             inkscape:connector-curvature="0"
             d="m 0,0 0,-1.71 -1.082,0 0,-3.7 -1.969,0 0,3.7 -1.082,0 0,1.71 L 0,0 z"
             style="fill:#009A44;fill-opacity:1;fill-rule:nonzero;stroke:none"
             id="path4917" />
        </g>
        <g
           id="g4919"
           transform="translate(248.0498,307.6479)">
          <path
             inkscape:connector-curvature="0"
             d="m 0,0 0,3.109 -0.57,1.147 2.46,0 0,-1.825 1.205,0 0,1.825 2.453,0 -0.556,-1.147 0,-3.109 0.556,-1.154 -2.453,0 0,1.883 -1.205,0 0,-1.883 -2.46,0 L 0,0 z"
             style="fill:#009A44;fill-opacity:1;fill-rule:nonzero;stroke:none"
             id="path4921" />
        </g>
        <g
           id="g4923"
           transform="translate(258.582,307.6406)">
          <path
             inkscape:connector-curvature="0"
             d="m 0,0 0,3.117 -0.563,1.147 2.561,0 C 2.97,4.264 3.732,4.047 4.285,3.614 4.9,3.138 5.208,2.426 5.208,1.479 5.208,0.685 4.956,0.049 4.451,-0.429 3.946,-0.908 3.292,-1.147 2.489,-1.147 l -3.052,0 L 0,0 z m 1.962,0.476 0.122,0 c 0.347,0 0.621,0.079 0.823,0.238 0.221,0.178 0.332,0.435 0.332,0.772 0,0.722 -0.385,1.082 -1.155,1.082 l -0.122,0 0,-2.092 z"
             style="fill:#009A44;fill-opacity:1;fill-rule:nonzero;stroke:none"
             id="path4925" />
        </g>
        <g
           id="g4927"
           transform="translate(265.5867,306.4938)">
          <path
             inkscape:connector-curvature="0"
             d="m 0,0 -1.912,0 1.479,4.264 -0.671,1.146 3.246,0 L 4.076,0 2.142,0 1.94,0.671 0.195,0.671 0,0 z m 1.111,3.621 -0.072,0 -0.469,-1.659 0.995,0 -0.454,1.659 z"
             style="fill:#009A44;fill-opacity:1;fill-rule:nonzero;stroke:none"
             id="path4929" />
        </g>
        <g
           id="g4931"
           transform="translate(270.528,307.6406)">
          <path
             inkscape:connector-curvature="0"
             d="m 0,0 0,3.117 -0.563,1.147 2.482,0 -0.044,-2.345 0.044,0 c 0.019,0.111 0.11,0.312 0.274,0.606 l 0.945,1.739 2.142,0 -1.688,-2.634 1.869,-2.777 -2.28,0 -0.93,1.637 C 2.183,0.592 2.116,0.699 2.048,0.812 1.981,0.925 1.938,1.027 1.919,1.118 l -0.044,0 0.044,-2.265 -2.482,0 L 0,0 z"
             style="fill:#009A44;fill-opacity:1;fill-rule:nonzero;stroke:none"
             id="path4933" />
        </g>
        <g
           id="g4935"
           transform="translate(281.2837,309.1198)">
          <path
             inkscape:connector-curvature="0"
             d="m 0,0 c 0,-0.828 -0.284,-1.493 -0.851,-1.998 -0.544,-0.481 -1.231,-0.722 -2.063,-0.722 -0.832,0 -1.52,0.241 -2.063,0.722 -0.568,0.505 -0.852,1.17 -0.852,1.998 0,0.813 0.286,1.478 0.859,1.998 0.548,0.495 1.233,0.743 2.056,0.743 0.822,0 1.507,-0.248 2.056,-0.743 C -0.286,1.478 0,0.813 0,0 m -3.903,-0.029 c 0,-0.303 0.093,-0.548 0.278,-0.736 0.185,-0.188 0.422,-0.281 0.711,-0.281 0.288,0 0.525,0.093 0.71,0.281 0.186,0.188 0.278,0.433 0.278,0.736 0,0.289 -0.09,0.533 -0.271,0.732 -0.18,0.2 -0.419,0.299 -0.717,0.299 -0.294,0 -0.532,-0.099 -0.715,-0.299 C -3.811,0.504 -3.903,0.26 -3.903,-0.029"
             style="fill:#009A44;fill-opacity:1;fill-rule:nonzero;stroke:none"
             id="path4937" />
        </g>
        <g
           id="g4939"
           transform="translate(285.6913,311.9041)">
          <path
             inkscape:connector-curvature="0"
             d="m 0,0 0,-1.71 -1.082,0 0,-3.7 -1.97,0 0,3.7 -1.082,0 0,1.71 L 0,0 z"
             style="fill:#009A44;fill-opacity:1;fill-rule:nonzero;stroke:none"
             id="path4941" />
        </g>
        <g
           id="g4943"
           transform="translate(287.3073,306.4938)">
          <path
             inkscape:connector-curvature="0"
             d="m 0,0 -1.912,0 1.479,4.264 -0.671,1.146 3.246,0 L 4.076,0 2.142,0 1.941,0.671 0.195,0.671 0,0 z m 1.111,3.621 -0.072,0 -0.469,-1.659 0.995,0 -0.454,1.659 z"
             style="fill:#009A44;fill-opacity:1;fill-rule:nonzero;stroke:none"
             id="path4945" />
        </g>
        <g
           id="g4947"
           transform="translate(273.9814,345.3883)">
          <path
             inkscape:connector-curvature="0"
             d="m 0,0 -7.36,0 0,-12.435 -15.661,30.897 -10.33,0 2.973,-5.688 0,-2.905 -15.138,0 2.928,-5.75 0,-18.555 -2.928,-5.691 15.138,0 0,-2.906 -2.973,-5.686 13.31,0 -2.98,5.686 0,2.906 11.309,0 4.352,-8.592 7.36,0 L 0,0 z m -35.226,-13.432 0,16.604 4.848,0 0,-13.431 7.357,0 0,12.443 7.914,-15.616 -20.119,0 z"
             style="fill:#009A44;fill-opacity:1;fill-rule:nonzero;stroke:none"
             id="path4949" />
        </g>
        <g
           id="g4951"
           transform="translate(282.9937,355.257)">
          <path
             inkscape:connector-curvature="0"
             d="m 0,0 -9.012,0 0,2.905 2.974,5.688 -13.31,0 2.976,-5.688 0,-2.905 -7.747,0 3.394,-6.697 18.187,0 0,-16.603 -3.301,0 0,-6.696 5.839,0 4.817,4.819 0,20.359 L 0,0 z"
             style="fill:#009A44;fill-opacity:1;fill-rule:nonzero;stroke:none"
             id="path4953" />
        </g>
        <g
           id="g4955"
           transform="translate(269.1758,345.3883)">
          <path
             inkscape:connector-curvature="0"
             d="m 0,0 -2.554,0 0,-12.435 L 0,-17.441 0,0 z"
             style="fill:#000000;fill-opacity:1;fill-rule:nonzero;stroke:none"
             id="path4957" />
        </g>
        <g
           id="g4959"
           transform="translate(235.5744,351.1606)">
          <path
             inkscape:connector-curvature="0"
             d="m 0,0 3.181,-2.6 4.848,0 0,-13.431 2.558,0 0,23.573 L 5.056,12.69 8.029,7.001 8.029,0 0,0 z"
             style="fill:#000000;fill-opacity:1;fill-rule:nonzero;stroke:none"
             id="path4961" />
        </g>
        <g
           id="g4963"
           transform="translate(272.4987,319.2705)">
          <path
             inkscape:connector-curvature="0"
             d="m 0,0 -4.382,0 -17.156,34.048 0,-5.746 9.965,-19.714 -28.037,0 1.138,2.309 0,20.868 -5.561,4.222 2.928,-5.75 0,-18.555 -2.928,-5.691 15.138,0 0,-2.907 -2.973,-5.685 13.31,0 -1.363,2.601 -7.556,0 1.206,2.306 0,3.685 16.042,0 4.352,-8.592 7.36,0 L 0,0 z"
             style="fill:#000000;fill-opacity:1;fill-rule:nonzero;stroke:none"
             id="path4965" />
        </g>
        <g
           id="g4967"
           transform="translate(283.0117,351.1606)">
          <path
             inkscape:connector-curvature="0"
             d="m 0,0 -22.061,0 1.319,-2.6 18.186,0 0,-16.604 L 0,-21.671 0,0 z"
             style="fill:#000000;fill-opacity:1;fill-rule:nonzero;stroke:none"
             id="path4969" />
        </g>
        <g
           id="g4971"
           transform="translate(277.1552,327.7303)">
          <path
             inkscape:connector-curvature="0"
             d="m 0,0 0,-2.469 5.839,0 L 3.488,0 0,0 z"
             style="fill:#000000;fill-opacity:1;fill-rule:nonzero;stroke:none"
             id="path4973" />
        </g>
        <g
           id="g4975"
           transform="translate(266.6217,355.257)">
          <path
             inkscape:connector-curvature="0"
             d="m 0,0 2.554,0 0,3.445 L -2.975,8.593 0,2.905 0,0 z"
             style="fill:#000000;fill-opacity:1;fill-rule:nonzero;stroke:none"
             id="path4977" />
        </g>
        <g
           id="g4979"
           transform="translate(277.0497,317.7995)" />
        <g
           id="g4983"
           transform="translate(294.05,307.6236)" />
      </g>
    </g>
  </g>
</svg>
